:SAMPLES-PER-SECOND 30
:FULLY-SPECIFIED
:DEGREES
102
root  -35.8323 39.5144 33.9025 -173.671 -53.7599 -172.33
RightUpLeg  -32.4654 -24.9036 6.18544
RightLeg  43.2729 -9.89772 -10.1073
RightFoot  -5.56566 0.0921817 -2.56628
RightToes  0.00048216 0.542163 -0.142577
Spine  46.5564 2.41767 -5.31662
Spine1  6.60006 0.409298 -0.730196
HEad  -30.3762 -10.6868 13.4602
LeftShoulder1  8.66163 -15.7602 -38.7648
LeftArm  -21.3545 7.2515 -19.1206
LeftForeArm  50.7944 -78.2422 -66.506
LeftHand  -0.25398 0.0180481 5.50724
RightShoulder  4.91715 10.7948 28.389
RightArm  -15.2506 1.91653 30.5463
RightForeArm  41.9187 78.1457 80.4506
RightHand  -0.0100953 -10.6279 -1.4148
LeftUpLeg  -30.2983 14.3592 6.16883
LeftLeg  -3.33579 50.1347 -14.3982
LeftFoot  9.38484 -3.65707 19.4841
LeftToes  1.06246e-005 4.65855e-005 -8.18505e-006
103
root  -35.5558 39.5059 33.8513 -173.249 -50.8263 -174.548
RightUpLeg  -28.0218 -27.8752 2.65673
RightLeg  45.0772 -9.08307 -9.92806
RightFoot  -6.451 0.0544153 -2.30006
RightToes  0.00048216 0.542163 -0.142577
Spine  42.6578 2.61565 -6.59901
Spine1  6.4265 0.504279 -1.28847
HEad  -28.3491 -13.0203 14.9022
LeftShoulder1  8.35155 -15.0498 -38.8201
LeftArm  -20.1151 12.0776 -19.827
LeftForeArm  74.4324 -79.2671 -88.4716
LeftHand  -0.25398 0.0180481 5.50724
RightShoulder  5.02968 10.4802 30
RightArm  -15.269 -5.39767 30.572
RightForeArm  62.5559 78.1654 100.065
RightHand  -0.0468827 -11.0364 -0.645715
LeftUpLeg  -28.155 14.55 6.60325
LeftLeg  -4.28593 52.8895 -15.0846
LeftFoot  9.46316 -3.52105 18.6872
LeftToes  1.06246e-005 4.65855e-005 -8.18505e-006
104
root  -35.2391 39.4805 33.7912 -173.109 -47.5377 -176.18
RightUpLeg  -23.8702 -31.6561 -0.735401
RightLeg  44.3914 -8.8564 -9.47179
RightFoot  -7.17911 0.0201029 -1.88087
RightToes  0.00048216 0.542163 -0.142577
Spine  38.7789 2.52476 -7.26723
Spine1  5.99906 0.749843 -2.32306
HEad  -26.3602 -15.0417 15.8836
LeftShoulder1  8.05863 -14.4161 -38.7842
LeftArm  -19.3212 16.706 -20.3524
LeftForeArm  96.6347 -78.6591 -109.809
LeftHand  -0.25398 0.0180481 5.50724
RightShoulder  5.1753 10.2417 31.7067
RightArm  -15.5199 -11.2903 30.2311
RightForeArm  77.693 77.4223 113.114
RightHand  -0.121647 -10.913 0.868537
LeftUpLeg  -26.42 15.0775 7.29168
LeftLeg  -4.69554 55.7037 -15.4464
LeftFoot  9.45877 -3.4188 18.1494
LeftToes  1.06246e-005 4.65855e-005 -8.18505e-006
105
root  -34.8707 39.4602 33.7396 -173.613 -43.6372 -177.087
RightUpLeg  -20.0264 -36.1573 -3.67569
RightLeg  41.9306 -9.93595 -9.69367
RightFoot  -8.29996 -0.0260754 -1.11416
RightToes  0.00048216 0.542163 -0.142577
Spine  35.5308 2.47898 -7.32485
Spine1  4.98785 1.1565 -3.20493
HEad  -24.421 -16.7773 16.1779
LeftShoulder1  7.88502 -13.8751 -39.1676
LeftArm  -18.7728 21.1949 -20.2235
LeftForeArm  112.119 -76.936 -125.522
LeftHand  -0.25398 0.0180481 5.50724
RightShoulder  5.18958 9.86486 32.8767
RightArm  -15.6584 -15.7223 29.9902
RightForeArm  89.1507 76.4438 122.282
RightHand  -0.211498 -10.7208 2.79294
LeftUpLeg  -24.598 16.0825 8.5256
LeftLeg  -4.85427 58.5975 -15.6223
LeftFoot  9.69839 -3.42996 17.9932
LeftToes  1.06246e-005 4.65855e-005 -8.18505e-006
106
root  -34.442 39.4619 33.6961 -174.582 -39.0098 -177.597
RightUpLeg  -16.8023 -41.2225 -6.00601
RightLeg  38.7192 -12.697 -10.9396
RightFoot  -9.14701 -0.0555896 -0.365212
RightToes  0.00048216 0.542163 -0.142577
Spine  32.667 2.40173 -6.90456
Spine1  3.93203 1.58432 -4.06689
HEad  -22.4925 -17.89 15.8142
LeftShoulder1  7.75392 -13.3842 -39.6839
LeftArm  -18.9827 25.5429 -19.6573
LeftForeArm  121.674 -74.7748 -135.854
LeftHand  -0.25398 0.0180481 5.50724
RightShoulder  5.24993 9.64915 33.9648
RightArm  -15.3912 -18.3028 29.635
RightForeArm  97.1046 75.4742 128.508
RightHand  -0.301377 -10.8549 4.53599
LeftUpLeg  -22.1532 17.3118 10.3439
LeftLeg  -5.8747 61.8612 -16.438
LeftFoot  10.383 -3.46704 17.591
LeftToes  1.06246e-005 4.65855e-005 -8.18505e-006
107
root  -33.9241 39.4731 33.6347 -175.635 -33.8055 -178.211
RightUpLeg  -14.6439 -46.9527 -7.70405
RightLeg  35.7318 -15.7677 -12.1085
RightFoot  -9.0931 -0.0533819 -0.420305
RightToes  0.00048216 0.542163 -0.142577
Spine  29.8606 2.36538 -6.55213
Spine1  3.25853 1.87953 -4.4868
HEad  -20.554 -18.3336 14.8886
LeftShoulder1  7.61063 -12.9092 -40.1152
LeftArm  -20.3094 29.767 -19.2702
LeftForeArm  127.623 -72.5513 -142.713
LeftHand  -0.25398 0.0180481 5.50724
RightShoulder  5.36899 9.6249 34.9354
RightArm  -14.6764 -18.9987 29.4693
RightForeArm  102.209 74.82 131.98
RightHand  -0.392771 -11.227 5.94644
LeftUpLeg  -18.766 18.3033 12.4608
LeftLeg  -9.72484 65.631 -19.6894
LeftFoot  11.2486 -3.57072 17.3856
LeftToes  1.06246e-005 4.65855e-005 -8.18505e-006
108
root  -33.285 39.4418 33.5291 -176.779 -28.2806 -179.351
RightUpLeg  -13.0782 -51.7559 -9.52583
RightLeg  33.8677 -16.3698 -11.741
RightFoot  -9.05708 -0.0517087 -0.504744
RightToes  0.00048216 0.542163 -0.142577
Spine  27.4068 2.51557 -6.62562
Spine1  2.83934 2.11025 -4.36234
HEad  -18.6048 -18.9065 13.7584
LeftShoulder1  7.45607 -12.5026 -40.3149
LeftArm  -22.273 33.7953 -19.3557
LeftForeArm  131.117 -70.4924 -147.291
LeftHand  -0.25398 0.0180481 5.50724
RightShoulder  5.36842 9.48232 35.3721
RightArm  -13.7627 -18.5701 30.1299
RightForeArm  106.157 74.4565 133.929
RightHand  -0.486653 -11.609 7.20927
LeftUpLeg  -14.4479 18.724 14.4631
LeftLeg  -17.148 69.6063 -26.2939
LeftFoot  12.2397 -3.85455 17.9432
LeftToes  1.06246e-005 4.65855e-005 -8.18505e-006
